HIERARCHY
ROOT Crab_Bone_002
{
	OFFSET 0.000001 1.809483 1.070690
	CHANNELS 6 Xposition Yposition Zposition Xrotation Yrotation Zrotation
	JOINT Crab_Bone_003
	{
		OFFSET -0.001212 -3.444643 1.330027
		CHANNELS 3 Xrotation Yrotation Zrotation
		JOINT Crab_Bone_004
		{
			OFFSET -0.000258 -0.734549 0.283620
			CHANNELS 3 Xrotation Yrotation Zrotation
			JOINT Crab_Bone_005
			{
				OFFSET -2.212137 2.996329 -3.161722
				CHANNELS 3 Xrotation Yrotation Zrotation
				JOINT Crab_Bone_006
				{
					OFFSET -2.363831 -0.999774 0.737129
					CHANNELS 3 Xrotation Yrotation Zrotation
					JOINT Crab_Bone_007
					{
						OFFSET 0.679981 -1.781121 0.391521
						CHANNELS 3 Xrotation Yrotation Zrotation
						JOINT Crab_Bone_012
						{
							OFFSET 0.167619 -0.705615 0.156840
							CHANNELS 3 Xrotation Yrotation Zrotation
							JOINT Crab_Bone_013
							{
								OFFSET 1.027711 -2.075420 1.136799
								CHANNELS 3 Xrotation Yrotation Zrotation
								End Site
								{
									OFFSET 0.059793 0.725938 2.474936
								}
							}
						}
						JOINT Crab_Bone_014
						{
							OFFSET 0.169967 -0.716239 0.177733
							CHANNELS 3 Xrotation Yrotation Zrotation
							JOINT Crab_Bone_015
							{
								OFFSET 1.177098 -2.213120 -0.871869
								CHANNELS 3 Xrotation Yrotation Zrotation
								End Site
								{
									OFFSET -0.140401 -0.651721 2.568885
								}
							}
						}
					}
				}
			}
		}
		JOINT Crab_Bone_008
		{
			OFFSET -0.000258 -0.734549 0.283620
			CHANNELS 3 Xrotation Yrotation Zrotation
			JOINT Crab_Bone_009
			{
				OFFSET 2.536297 2.452007 -2.009468
				CHANNELS 3 Xrotation Yrotation Zrotation
				JOINT Crab_Bone_010
				{
					OFFSET 1.536116 -0.822250 0.380907
					CHANNELS 3 Xrotation Yrotation Zrotation
					JOINT Crab_Bone_011
					{
						OFFSET -0.216882 -1.545392 0.401011
						CHANNELS 3 Xrotation Yrotation Zrotation
						JOINT Crab_Bone_016
						{
							OFFSET -0.105369 -0.640233 0.098495
							CHANNELS 3 Xrotation Yrotation Zrotation
							JOINT Crab_Bone_017
							{
								OFFSET -0.877063 -1.746863 0.622338
								CHANNELS 3 Xrotation Yrotation Zrotation
								End Site
								{
									OFFSET 0.058713 0.817211 1.880637
								}
							}
						}
						JOINT Crab_Bone_018
						{
							OFFSET -0.117790 -0.696131 0.111856
							CHANNELS 3 Xrotation Yrotation Zrotation
							JOINT Crab_Bone_019
							{
								OFFSET -0.774615 -2.143309 -0.762011
								CHANNELS 3 Xrotation Yrotation Zrotation
								End Site
								{
									OFFSET 0.098373 -1.177132 2.092640
								}
							}
						}
					}
				}
			}
		}
	}
	JOINT Crab_Bone_020
	{
		OFFSET -1.116273 -0.154590 -0.374501
		CHANNELS 3 Xrotation Yrotation Zrotation
		JOINT Crab_Bone_021
		{
			OFFSET -3.118662 1.611093 1.513430
			CHANNELS 3 Xrotation Yrotation Zrotation
			JOINT Crab_Bone_022
			{
				OFFSET -1.588351 2.658805 -1.742729
				CHANNELS 3 Xrotation Yrotation Zrotation
				End Site
				{
					OFFSET -3.122031 -1.424496 0.923547
				}
			}
		}
	}
	JOINT Crab_Bone_023
	{
		OFFSET -1.485358 -0.679445 -0.384127
		CHANNELS 3 Xrotation Yrotation Zrotation
		JOINT Crab_Bone_024
		{
			OFFSET -4.354937 1.041430 2.735311
			CHANNELS 3 Xrotation Yrotation Zrotation
			JOINT Crab_Bone_025
			{
				OFFSET -3.146346 1.140532 -2.766851
				CHANNELS 3 Xrotation Yrotation Zrotation
				End Site
				{
					OFFSET -1.594861 -4.033993 0.197688
				}
			}
		}
	}
	JOINT Crab_Bone_026
	{
		OFFSET -1.641655 -1.332070 -0.435368
		CHANNELS 3 Xrotation Yrotation Zrotation
		JOINT Crab_Bone_027
		{
			OFFSET -4.159019 0.186248 1.795406
			CHANNELS 3 Xrotation Yrotation Zrotation
			JOINT Crab_Bone_028
			{
				OFFSET -3.475782 0.547989 -1.456533
				CHANNELS 3 Xrotation Yrotation Zrotation
				End Site
				{
					OFFSET -0.634418 -3.753667 0.101702
				}
			}
		}
	}
	JOINT Crab_Bone_029
	{
		OFFSET -1.691511 -1.877323 -0.077977
		CHANNELS 3 Xrotation Yrotation Zrotation
		JOINT Crab_Bone_030
		{
			OFFSET -4.567539 -1.546834 1.375860
			CHANNELS 3 Xrotation Yrotation Zrotation
			JOINT Crab_Bone_031
			{
				OFFSET -2.285981 -1.723023 -1.671352
				CHANNELS 3 Xrotation Yrotation Zrotation
				End Site
				{
					OFFSET 2.513823 -2.117836 -0.428249
				}
			}
		}
	}
	JOINT Crab_Bone_020_Bis
	{
		OFFSET 1.052121 -0.155333 -0.407179
		CHANNELS 3 Xrotation Yrotation Zrotation
		JOINT Crab_Bone_021_Bis
		{
			OFFSET 3.269777 1.689566 1.700762
			CHANNELS 3 Xrotation Yrotation Zrotation
			JOINT Crab_Bone_022_Bis
			{
				OFFSET 1.433824 3.291166 -1.667421
				CHANNELS 3 Xrotation Yrotation Zrotation
				End Site
				{
					OFFSET -3.624812 1.364690 -0.816260
				}
			}
		}
	}
	JOINT Crab_Bone_023_Bis
	{
		OFFSET 1.420852 -0.680440 -0.618396
		CHANNELS 3 Xrotation Yrotation Zrotation
		JOINT Crab_Bone_024_Bis
		{
			OFFSET 3.158329 0.755220 2.314403
			CHANNELS 3 Xrotation Yrotation Zrotation
			JOINT Crab_Bone_025_Bis
			{
				OFFSET 3.724785 1.320794 -2.253904
				CHANNELS 3 Xrotation Yrotation Zrotation
				End Site
				{
					OFFSET -1.615193 4.246540 -0.238007
				}
			}
		}
	}
	JOINT Crab_Bone_026_Bis
	{
		OFFSET 1.576704 -1.333172 -0.624875
		CHANNELS 3 Xrotation Yrotation Zrotation
		JOINT Crab_Bone_027_Bis
		{
			OFFSET 3.858073 0.173228 2.214125
			CHANNELS 3 Xrotation Yrotation Zrotation
			JOINT Crab_Bone_028_Bis
			{
				OFFSET 3.076779 0.421557 -1.941671
				CHANNELS 3 Xrotation Yrotation Zrotation
				End Site
				{
					OFFSET -0.558715 3.617706 -0.120044
				}
			}
		}
	}
	JOINT Crab_Bone_029_Bis
	{
		OFFSET 1.626128 -2.007151 -0.390477
		CHANNELS 3 Xrotation Yrotation Zrotation
		JOINT Crab_Bone_030_Bis
		{
			OFFSET 3.013092 -0.711103 1.404963
			CHANNELS 3 Xrotation Yrotation Zrotation
			JOINT Crab_Bone_031_Bis
			{
				OFFSET 2.645858 -2.135076 -1.922209
				CHANNELS 3 Xrotation Yrotation Zrotation
				End Site
				{
					OFFSET 2.656470 2.760786 0.758435
				}
			}
		}
	}
}
MOTION
Frames: 5
Frame Time: 0.040000
0.000000 1.809483 1.070688 -0.009738 -0.655996 -1.683234 -0.000001 0.000000 0.000000 1.092531 0.229447 -3.748867 0.098902 -1.037921 -1.057747 1.811597 4.665607 12.097468 0.000004 0.000003 0.000001 3.880601 2.974021 1.654381 -0.000001 0.000001 0.000009 -5.677689 -3.612190 1.100726 0.000004 -0.000001 0.000003 -0.678386 -3.312791 -4.649014 0.422872 3.064053 4.388456 4.585709 -5.253110 -9.273574 0.000002 -0.000003 -0.000003 2.149432 -0.103197 2.534587 0.000008 0.000013 0.000017 13.099388 -5.848969 6.053372 0.000003 -0.000003 0.000014 9.753111 14.228066 11.232594 -35.692765 -23.540310 -32.034308 -0.000005 0.000004 0.000008 2.977199 18.256904 6.044151 -13.194780 -35.520556 -7.307812 -0.000001 -0.000004 0.000005 -0.376189 30.440524 9.227392 -18.249369 -59.802500 -19.555974 0.000001 -0.000005 0.000001 1.200925 -2.693092 -3.148204 -3.716486 8.698673 -3.179099 -0.000009 0.000005 0.000005 0.292603 0.763140 -10.263724 -0.419942 0.390944 0.416181 -0.000008 -0.000004 -0.000004 7.076922 -22.774552 -0.076733 -19.062368 43.687078 11.806779 -0.000002 0.000007 -0.000006 0.471809 -19.238778 -4.443422 -6.861706 44.695614 6.448213 -0.000002 0.000014 0.000002 -4.342866 -18.362226 14.191688 37.845088 39.169540 -38.543939 0.000006 0.000003 0.000008 
0.000000 1.809483 1.070688 -0.009738 -0.655996 -1.683234 -0.000001 0.000000 0.000000 1.092531 0.229447 -3.748867 0.098902 -1.037921 -1.057747 1.811597 4.665607 12.097468 0.000004 0.000003 0.000001 3.880601 2.974021 1.654381 -0.000001 0.000001 0.000009 -5.677689 -3.612190 1.100726 0.000004 -0.000001 0.000003 -0.678386 -3.312791 -4.649014 0.422872 3.064053 4.388456 4.585709 -5.253110 -9.273574 0.000002 -0.000003 -0.000003 2.149432 -0.103197 2.534587 0.000008 0.000013 0.000017 13.099388 -5.848969 6.053372 0.000003 -0.000003 0.000014 9.753111 14.228066 11.232594 -35.692765 -23.540310 -32.034308 -0.000005 0.000004 0.000008 2.977199 18.256904 6.044151 -13.194780 -35.520556 -7.307812 -0.000001 -0.000004 0.000005 -0.376189 30.440524 9.227392 -18.249369 -59.802500 -19.555974 0.000001 -0.000005 0.000001 1.200925 -2.693092 -3.148204 -3.716486 8.698673 -3.179099 -0.000009 0.000005 0.000005 0.292603 0.763140 -10.263724 -0.419942 0.390944 0.416181 -0.000008 -0.000004 -0.000004 7.076922 -22.774552 -0.076733 -19.062368 43.687078 11.806779 -0.000002 0.000007 -0.000006 0.471809 -19.238778 -4.443422 -6.861706 44.695614 6.448213 -0.000002 0.000014 0.000002 -4.342866 -18.362226 14.191688 37.845088 39.169540 -38.543939 0.000006 0.000003 0.000008 
0.000000 1.809483 1.070688 -0.514040 -0.646999 -1.682167 -0.000001 0.000000 0.000000 0.933882 -0.003050 -3.384007 0.093328 -0.973575 -0.992269 1.651748 3.844902 11.452832 0.000002 0.000002 -0.000002 3.916719 2.957933 1.595945 -0.000002 0.000002 0.000009 -5.725290 -3.618908 1.057225 0.000003 0.000001 -0.000002 -0.680513 -3.588149 -4.811023 0.418477 3.020054 4.325826 5.179289 -5.498203 -9.307019 0.000002 -0.000002 -0.000004 2.182685 -0.149705 2.451998 0.000003 0.000010 0.000015 12.862530 -5.787201 6.005150 0.000000 -0.000005 0.000015 9.799905 14.284363 11.259493 -35.049717 -23.357982 -31.438521 -0.000003 0.000009 0.000008 3.381295 18.920804 5.628330 -12.778705 -34.733540 -7.001781 -0.000003 -0.000004 0.000003 -0.358782 29.995957 9.136418 -17.849591 -59.372116 -19.148772 0.000001 -0.000005 0.000001 1.103985 -2.359760 -3.277139 -3.352934 7.791732 -2.874591 -0.000007 0.000008 0.000004 0.374988 0.701202 -10.142886 -0.155105 0.145210 0.153898 -0.000008 -0.000003 -0.000006 7.260723 -23.230732 0.034271 -18.849212 43.403110 11.633322 -0.000001 0.000007 -0.000006 0.475955 -18.768916 -4.334096 -6.719171 44.193851 6.309714 -0.000001 0.000014 0.000002 -4.271079 -18.277994 14.404657 37.253146 38.934493 -37.946735 0.000006 0.000002 0.000009 
0.000000 1.809483 1.070688 -1.758186 -0.624802 -1.679111 0.000000 0.000000 0.000000 0.540702 -0.586576 -2.442967 0.081147 -0.835667 -0.851884 1.070728 2.860311 11.073436 0.000002 0.000003 -0.000002 3.953002 2.941709 1.537206 -0.000001 0.000001 0.000007 -5.773144 -3.625594 1.013463 0.000005 -0.000001 0.000003 -0.705727 -4.281398 -5.273002 0.408522 2.922087 4.186353 5.718265 -5.830633 -9.516421 0.000003 -0.000002 -0.000004 2.215970 -0.196535 2.369067 0.000006 0.000009 0.000012 12.235643 -5.621842 5.877584 0.000002 -0.000002 0.000012 9.875658 14.381061 11.341174 -33.356513 -22.844027 -29.870818 -0.000003 0.000010 0.000011 4.288742 20.429804 4.682112 -11.690769 -32.582427 -6.216874 -0.000000 -0.000004 0.000003 -0.314481 28.862959 8.902743 -16.829047 -58.209782 -18.108085 -0.000000 0.000002 0.000001 0.787874 -1.548559 -3.568173 -2.469149 5.638564 -2.128219 -0.000009 0.000009 0.000010 0.560526 0.572710 -9.835343 0.538834 -0.509586 -0.533466 -0.000009 -0.000003 -0.000003 7.680950 -24.320770 0.247979 -18.274779 42.620698 11.168282 -0.000002 0.000008 -0.000006 0.484157 -17.571628 -4.056852 -6.350218 42.844639 5.951599 -0.000001 0.000012 0.000002 -4.094070 -18.118468 14.880721 35.709995 38.288924 -36.389414 0.000015 0.000004 0.000008 
0.000000 1.809483 1.070688 -3.487133 -0.593842 -1.673394 -0.000001 0.000000 0.000000 0.024755 -1.426930 -1.030744 0.069055 -0.702378 -0.716175 0.135222 1.751640 10.909141 0.000003 0.000003 0.000001 3.989407 2.925352 1.478281 -0.000001 0.000001 0.000007 -5.821196 -3.632208 0.969512 0.000006 0.000000 0.000002 -0.816240 -5.279616 -6.057664 0.397295 2.814392 4.032966 6.195641 -6.219663 -9.859663 0.000002 -0.000003 -0.000003 2.249258 -0.243602 2.285931 0.000009 0.000011 0.000013 11.272485 -5.362679 5.682338 -0.000005 -0.000004 0.000016 9.911498 14.396055 11.478164 -30.775145 -21.963740 -27.485006 -0.000001 0.000010 0.000011 5.333476 22.199693 3.572030 -10.057666 -29.085394 -5.084146 -0.000002 -0.000008 0.000000 -0.259209 27.210946 8.558468 -15.367724 -56.366618 -16.614625 0.000000 0.000002 0.000001 0.331878 -0.384171 -3.897934 -1.267555 2.825839 -1.099821 -0.000013 0.000006 0.000008 0.739061 0.422272 -9.387829 1.592161 -1.534086 -1.576746 -0.000007 -0.000003 -0.000003 8.168985 -25.748620 0.400945 -17.376718 41.345645 10.448889 -0.000001 0.000009 -0.000007 0.488729 -15.827097 -3.656658 -5.808314 40.719853 5.426475 -0.000002 0.000016 0.000001 -3.944873 -17.943267 15.423809 33.390131 37.224982 -34.046980 0.000006 0.000005 0.000004 
